# xmcd
# 
# Track frame offsets:
#     150
#     15242
#     29556
#     46793
#     62534
#     79605
#     97295
#     111629
#     132242
#     157250
#     171308
#     186147
#     197667
#     213790
#     229464
#     248341
#     269736
#     286284
#     311137
#     325275
# 
# Disc length: 4569
# 
# Revision: 0
# Processed by: cddbd v1.5.2PL0 Copyright (c) Steve Scherf et al.
# Submitted via: fre:ac v1.0.17
# 
DISCID=2611d714
DTITLE=Clash, The - Essential
DYEAR=2003
DGENRE=Rock
TTITLE0=London Calling
TTITLE1=The Guns Of Brixton
TTITLE2=Clampdown
TTITLE3=Rudie Can't Fail
TTITLE4=Lost In The Supermarket
TTITLE5=Jimmy Jazz
TTITLE6=Train In Vain
TTITLE7=Bankrobber
TTITLE8=The Magnificent Seven
TTITLE9=Ivan Meets G.I. Joe
TTITLE10=Police On My Back
TTITLE11=Stop The World
TTITLE12=Somebody Got Murdered
TTITLE13=The Street Parade
TTITLE14=This Is Radio Clash
TTITLE15=Ghetto Defendant
TTITLE16=Rock The Casbah
TTITLE17=Straight To Hell
TTITLE18=Should I Stay Or Should I Go
TTITLE19=This Is England
EXTD=YEAR: 2003
EXTT0=
EXTT1=
EXTT2=
EXTT3=
EXTT4=
EXTT5=
EXTT6=
EXTT7=
EXTT8=
EXTT9=
EXTT10=
EXTT11=
EXTT12=
EXTT13=
EXTT14=
EXTT15=
EXTT16=
EXTT17=
EXTT18=
EXTT19=
PLAYORDER=
